<svg width="138" height="32" viewBox="0 0 138 32" fill="none" xmlns="http://www.w3.org/2000/svg">
<path d="M18.46 12.96C18.46 15.4 18 17.44 17.08 19.08C16.16 20.72 14.84 21.95 13.12 22.77C11.4 23.59 9.35 24 6.97 24H0.52V2.58H7.57C9.83 2.58 11.77 2.98 13.39 3.78C15.03 4.58 16.28 5.75 17.14 7.29C18.02 8.81 18.46 10.7 18.46 12.96ZM13.18 13.14C13.18 11.68 12.97 10.48 12.55 9.54C12.15 8.6 11.54 7.9 10.72 7.44C9.92 6.98 8.92 6.75 7.72 6.75H5.62V19.8H7.27C9.29 19.8 10.78 19.25 11.74 18.15C12.7 17.03 13.18 15.36 13.18 13.14ZM27.3491 7.53V24H22.3091V7.53H27.3491ZM24.8591 0.989999C25.5791 0.989999 26.2091 1.15 26.7491 1.47C27.2891 1.79 27.5591 2.41 27.5591 3.33C27.5591 4.23 27.2891 4.85 26.7491 5.19C26.2091 5.51 25.5791 5.67 24.8591 5.67C24.0991 5.67 23.4491 5.51 22.9091 5.19C22.3891 4.85 22.1291 4.23 22.1291 3.33C22.1291 2.41 22.3891 1.79 22.9091 1.47C23.4491 1.15 24.0991 0.989999 24.8591 0.989999ZM37.0227 7.23C38.1027 7.23 39.0227 7.44 39.7827 7.86C40.5427 8.28 41.1727 8.86 41.6727 9.6H41.7927L42.1827 7.53H46.5027V24.03C46.5027 25.59 46.1927 26.9 45.5727 27.96C44.9527 29.02 44.0127 29.82 42.7527 30.36C41.4927 30.92 39.9127 31.2 38.0127 31.2C36.7727 31.2 35.6427 31.13 34.6227 30.99C33.6227 30.85 32.6527 30.6 31.7127 30.24V26.13C32.3927 26.41 33.0527 26.64 33.6927 26.82C34.3527 27.02 35.0327 27.16 35.7327 27.24C36.4527 27.34 37.2127 27.39 38.0127 27.39C39.1727 27.39 40.0327 27.12 40.5927 26.58C41.1727 26.06 41.4627 25.28 41.4627 24.24V23.91C41.4627 23.61 41.4727 23.28 41.4927 22.92C41.5327 22.56 41.5727 22.21 41.6127 21.87H41.4627C40.9827 22.65 40.3727 23.25 39.6327 23.67C38.8927 24.09 37.9927 24.3 36.9327 24.3C35.0727 24.3 33.5927 23.56 32.4927 22.08C31.4127 20.6 30.8727 18.5 30.8727 15.78C30.8727 13.94 31.1227 12.39 31.6227 11.13C32.1227 9.85 32.8327 8.88 33.7527 8.22C34.6927 7.56 35.7827 7.23 37.0227 7.23ZM38.7927 11.22C38.1727 11.22 37.6527 11.4 37.2327 11.76C36.8127 12.1 36.5027 12.61 36.3027 13.29C36.1027 13.97 36.0027 14.83 36.0027 15.87C36.0027 17.41 36.2327 18.55 36.6927 19.29C37.1527 20.01 37.8727 20.37 38.8527 20.37C39.3927 20.37 39.8427 20.3 40.2027 20.16C40.5827 20 40.8827 19.76 41.1027 19.44C41.3427 19.1 41.5227 18.68 41.6427 18.18C41.7627 17.68 41.8227 17.08 41.8227 16.38V15.75C41.8227 14.73 41.7227 13.89 41.5227 13.23C41.3227 12.55 41.0027 12.05 40.5627 11.73C40.1227 11.39 39.5327 11.22 38.7927 11.22ZM55.9136 7.53V24H50.8736V7.53H55.9136ZM53.4236 0.989999C54.1436 0.989999 54.7736 1.15 55.3136 1.47C55.8536 1.79 56.1236 2.41 56.1236 3.33C56.1236 4.23 55.8536 4.85 55.3136 5.19C54.7736 5.51 54.1436 5.67 53.4236 5.67C52.6636 5.67 52.0136 5.51 51.4736 5.19C50.9536 4.85 50.6936 4.23 50.6936 3.33C50.6936 2.41 50.9536 1.79 51.4736 1.47C52.0136 1.15 52.6636 0.989999 53.4236 0.989999ZM67.7472 20.28C68.2672 20.28 68.7472 20.23 69.1872 20.13C69.6272 20.03 70.0772 19.9 70.5372 19.74V23.46C69.9972 23.7 69.3772 23.9 68.6772 24.06C67.9772 24.22 67.1472 24.3 66.1872 24.3C65.1672 24.3 64.2572 24.14 63.4572 23.82C62.6772 23.48 62.0572 22.91 61.5972 22.11C61.1572 21.29 60.9372 20.16 60.9372 18.72V11.31H58.8372V9.21L61.3572 7.59L62.7372 4.11H65.9772V7.53H70.3572V11.31H65.9772V18.54C65.9772 19.12 66.1372 19.56 66.4572 19.86C66.7772 20.14 67.2072 20.28 67.7472 20.28ZM81.0459 7.2C83.1859 7.2 84.8459 7.7 86.0259 8.7C87.2059 9.68 87.7959 11.14 87.7959 13.08V24H84.2859L83.2959 21.78H83.1759C82.7159 22.36 82.2359 22.84 81.7359 23.22C81.2559 23.6 80.6959 23.87 80.0559 24.03C79.4359 24.21 78.6659 24.3 77.7459 24.3C76.7859 24.3 75.9159 24.11 75.1359 23.73C74.3759 23.35 73.7759 22.77 73.3359 21.99C72.8959 21.21 72.6759 20.22 72.6759 19.02C72.6759 17.26 73.2859 15.96 74.5059 15.12C75.7459 14.28 77.5559 13.81 79.9359 13.71L82.7559 13.62V13.14C82.7559 12.34 82.5459 11.76 82.1259 11.4C81.7259 11.04 81.1659 10.86 80.4459 10.86C79.7259 10.86 78.9759 10.98 78.1959 11.22C77.4159 11.44 76.6259 11.72 75.8259 12.06L74.2959 8.7C75.1959 8.22 76.2159 7.85 77.3559 7.59C78.4959 7.33 79.7259 7.2 81.0459 7.2ZM81.2259 16.56C79.9659 16.6 79.0859 16.83 78.5859 17.25C78.0859 17.65 77.8359 18.2 77.8359 18.9C77.8359 19.52 78.0159 19.97 78.3759 20.25C78.7359 20.53 79.1959 20.67 79.7559 20.67C80.5959 20.67 81.3059 20.42 81.8859 19.92C82.4659 19.4 82.7559 18.7 82.7559 17.82V16.5L81.2259 16.56ZM97.1343 24H92.0643V1.2H97.1343V24ZM114.939 24L113.619 19.41H106.209L104.889 24H99.3086L106.599 2.49H113.139L120.519 24H114.939ZM111.219 10.86C111.119 10.5 110.979 10.02 110.799 9.42C110.639 8.8 110.469 8.17 110.289 7.53C110.129 6.89 109.999 6.35 109.899 5.91C109.819 6.35 109.689 6.9 109.509 7.56C109.349 8.2 109.189 8.83 109.029 9.45C108.869 10.05 108.739 10.52 108.639 10.86L107.379 15.15H112.479L111.219 10.86ZM137.59 24H121.33V20.76L131.14 6.75H121.57V2.58H137.35V5.82L127.54 19.83H137.59V24Z" fill="#03008D"/>
</svg>
