<svg width="169" height="170" viewBox="0 0 169 170" fill="none" xmlns="http://www.w3.org/2000/svg">
<ellipse cx="84.5" cy="85" rx="84.5" ry="85" fill="#03008D"/>
<path d="M34.46 83.96C34.46 86.4 34 88.44 33.08 90.08C32.16 91.72 30.84 92.95 29.12 93.77C27.4 94.59 25.35 95 22.97 95H16.52V73.58H23.57C25.83 73.58 27.77 73.98 29.39 74.78C31.03 75.58 32.28 76.75 33.14 78.29C34.02 79.81 34.46 81.7 34.46 83.96ZM29.18 84.14C29.18 82.68 28.97 81.48 28.55 80.54C28.15 79.6 27.54 78.9 26.72 78.44C25.92 77.98 24.92 77.75 23.72 77.75H21.62V90.8H23.27C25.29 90.8 26.78 90.25 27.74 89.15C28.7 88.03 29.18 86.36 29.18 84.14ZM43.3491 78.53V95H38.3091V78.53H43.3491ZM40.8591 71.99C41.5791 71.99 42.2091 72.15 42.7491 72.47C43.2891 72.79 43.5591 73.41 43.5591 74.33C43.5591 75.23 43.2891 75.85 42.7491 76.19C42.2091 76.51 41.5791 76.67 40.8591 76.67C40.0991 76.67 39.4491 76.51 38.9091 76.19C38.3891 75.85 38.1291 75.23 38.1291 74.33C38.1291 73.41 38.3891 72.79 38.9091 72.47C39.4491 72.15 40.0991 71.99 40.8591 71.99ZM53.0227 78.23C54.1027 78.23 55.0227 78.44 55.7827 78.86C56.5427 79.28 57.1727 79.86 57.6727 80.6H57.7927L58.1827 78.53H62.5027V95.03C62.5027 96.59 62.1927 97.9 61.5727 98.96C60.9527 100.02 60.0127 100.82 58.7527 101.36C57.4927 101.92 55.9127 102.2 54.0127 102.2C52.7727 102.2 51.6427 102.13 50.6227 101.99C49.6227 101.85 48.6527 101.6 47.7127 101.24V97.13C48.3927 97.41 49.0527 97.64 49.6927 97.82C50.3527 98.02 51.0327 98.16 51.7327 98.24C52.4527 98.34 53.2127 98.39 54.0127 98.39C55.1727 98.39 56.0327 98.12 56.5927 97.58C57.1727 97.06 57.4627 96.28 57.4627 95.24V94.91C57.4627 94.61 57.4727 94.28 57.4927 93.92C57.5327 93.56 57.5727 93.21 57.6127 92.87H57.4627C56.9827 93.65 56.3727 94.25 55.6327 94.67C54.8927 95.09 53.9927 95.3 52.9327 95.3C51.0727 95.3 49.5927 94.56 48.4927 93.08C47.4127 91.6 46.8727 89.5 46.8727 86.78C46.8727 84.94 47.1227 83.39 47.6227 82.13C48.1227 80.85 48.8327 79.88 49.7527 79.22C50.6927 78.56 51.7827 78.23 53.0227 78.23ZM54.7927 82.22C54.1727 82.22 53.6527 82.4 53.2327 82.76C52.8127 83.1 52.5027 83.61 52.3027 84.29C52.1027 84.97 52.0027 85.83 52.0027 86.87C52.0027 88.41 52.2327 89.55 52.6927 90.29C53.1527 91.01 53.8727 91.37 54.8527 91.37C55.3927 91.37 55.8427 91.3 56.2027 91.16C56.5827 91 56.8827 90.76 57.1027 90.44C57.3427 90.1 57.5227 89.68 57.6427 89.18C57.7627 88.68 57.8227 88.08 57.8227 87.38V86.75C57.8227 85.73 57.7227 84.89 57.5227 84.23C57.3227 83.55 57.0027 83.05 56.5627 82.73C56.1227 82.39 55.5327 82.22 54.7927 82.22ZM71.9136 78.53V95H66.8736V78.53H71.9136ZM69.4236 71.99C70.1436 71.99 70.7736 72.15 71.3136 72.47C71.8536 72.79 72.1236 73.41 72.1236 74.33C72.1236 75.23 71.8536 75.85 71.3136 76.19C70.7736 76.51 70.1436 76.67 69.4236 76.67C68.6636 76.67 68.0136 76.51 67.4736 76.19C66.9536 75.85 66.6936 75.23 66.6936 74.33C66.6936 73.41 66.9536 72.79 67.4736 72.47C68.0136 72.15 68.6636 71.99 69.4236 71.99ZM83.7472 91.28C84.2672 91.28 84.7472 91.23 85.1872 91.13C85.6272 91.03 86.0772 90.9 86.5372 90.74V94.46C85.9972 94.7 85.3772 94.9 84.6772 95.06C83.9772 95.22 83.1472 95.3 82.1872 95.3C81.1672 95.3 80.2572 95.14 79.4572 94.82C78.6772 94.48 78.0572 93.91 77.5972 93.11C77.1572 92.29 76.9372 91.16 76.9372 89.72V82.31H74.8372V80.21L77.3572 78.59L78.7372 75.11H81.9772V78.53H86.3572V82.31H81.9772V89.54C81.9772 90.12 82.1372 90.56 82.4572 90.86C82.7772 91.14 83.2072 91.28 83.7472 91.28ZM97.0459 78.2C99.1859 78.2 100.846 78.7 102.026 79.7C103.206 80.68 103.796 82.14 103.796 84.08V95H100.286L99.2959 92.78H99.1759C98.7159 93.36 98.2359 93.84 97.7359 94.22C97.2559 94.6 96.6959 94.87 96.0559 95.03C95.4359 95.21 94.6659 95.3 93.7459 95.3C92.7859 95.3 91.9159 95.11 91.1359 94.73C90.3759 94.35 89.7759 93.77 89.3359 92.99C88.8959 92.21 88.6759 91.22 88.6759 90.02C88.6759 88.26 89.2859 86.96 90.5059 86.12C91.7459 85.28 93.5559 84.81 95.9359 84.71L98.7559 84.62V84.14C98.7559 83.34 98.5459 82.76 98.1259 82.4C97.7259 82.04 97.1659 81.86 96.4459 81.86C95.7259 81.86 94.9759 81.98 94.1959 82.22C93.4159 82.44 92.6259 82.72 91.8259 83.06L90.2959 79.7C91.1959 79.22 92.2159 78.85 93.3559 78.59C94.4959 78.33 95.7259 78.2 97.0459 78.2ZM97.2259 87.56C95.9659 87.6 95.0859 87.83 94.5859 88.25C94.0859 88.65 93.8359 89.2 93.8359 89.9C93.8359 90.52 94.0159 90.97 94.3759 91.25C94.7359 91.53 95.1959 91.67 95.7559 91.67C96.5959 91.67 97.3059 91.42 97.8859 90.92C98.4659 90.4 98.7559 89.7 98.7559 88.82V87.5L97.2259 87.56ZM113.134 95H108.064V72.2H113.134V95ZM130.939 95L129.619 90.41H122.209L120.889 95H115.309L122.599 73.49H129.139L136.519 95H130.939ZM127.219 81.86C127.119 81.5 126.979 81.02 126.799 80.42C126.639 79.8 126.469 79.17 126.289 78.53C126.129 77.89 125.999 77.35 125.899 76.91C125.819 77.35 125.689 77.9 125.509 78.56C125.349 79.2 125.189 79.83 125.029 80.45C124.869 81.05 124.739 81.52 124.639 81.86L123.379 86.15H128.479L127.219 81.86ZM153.59 95H137.33V91.76L147.14 77.75H137.57V73.58H153.35V76.82L143.54 90.83H153.59V95Z" fill="#D8D8EE"/>
</svg>
